# xmcd CD database file
#
# Track frame offsets:
#	150
#	30703
#	58002
#	90164
#	115279
#	145482
#	169872
#	202005
#
# Disc length: 3152 seconds
#
# Revision: 0
# Processed by: cddbd v1.5PL3 Copyright (c) Steve Scherf et al.
# Submitted via: CDex 1.51
#
DISCID=6d0c4e08
DTITLE=Gilles Coquard - Absoluto Romanticho
DYEAR=98
DGENRE=Jazz
TTITLE0=Saqqarah
TTITLE1=Absoluto Romanticho
TTITLE2=Aquabon
TTITLE3=Spanish
TTITLE4=Patabe
TTITLE5=Sherwood
TTITLE6=Perhan
TTITLE7=News
EXTD=YEAR: 98
EXTT0=
EXTT1=
EXTT2=
EXTT3=
EXTT4=
EXTT5=
EXTT6=
EXTT7=
PLAYORDER=
